<svg xmlns="http://www.w3.org/2000/svg" xmlns:xlink="http://www.w3.org/1999/xlink" width="500" zoomAndPan="magnify" viewBox="0 0 375 374.999991" height="500" preserveAspectRatio="xMidYMid meet" version="1.0"><defs><g/><clipPath id="f8b9eef064"><path d="M 73.808594 163.480469 L 110.230469 163.480469 L 110.230469 195.304688 L 73.808594 195.304688 Z M 73.808594 163.480469 " clip-rule="nonzero"/></clipPath><clipPath id="882bcd2f5b"><path d="M 92.046875 195.304688 L 73.863281 163.480469 L 110.230469 163.480469 Z M 92.046875 195.304688 " clip-rule="nonzero"/></clipPath><clipPath id="6a815f7889"><path d="M 0.808594 0.480469 L 37.230469 0.480469 L 37.230469 32.304688 L 0.808594 32.304688 Z M 0.808594 0.480469 " clip-rule="nonzero"/></clipPath><clipPath id="68d8ee19ae"><path d="M 19.046875 32.304688 L 0.863281 0.480469 L 37.230469 0.480469 Z M 19.046875 32.304688 " clip-rule="nonzero"/></clipPath><clipPath id="2bcb05366b"><rect x="0" width="38" y="0" height="33"/></clipPath><clipPath id="d194acbece"><path d="M 37.441406 163.480469 L 73.863281 163.480469 L 73.863281 195.304688 L 37.441406 195.304688 Z M 37.441406 163.480469 " clip-rule="nonzero"/></clipPath><clipPath id="63b978f124"><path d="M 55.679688 195.304688 L 37.496094 163.480469 L 73.863281 163.480469 Z M 55.679688 195.304688 " clip-rule="nonzero"/></clipPath><clipPath id="9618319927"><path d="M 0.441406 0.480469 L 36.863281 0.480469 L 36.863281 32.304688 L 0.441406 32.304688 Z M 0.441406 0.480469 " clip-rule="nonzero"/></clipPath><clipPath id="ef5f10eabd"><path d="M 18.679688 32.304688 L 0.496094 0.480469 L 36.863281 0.480469 Z M 18.679688 32.304688 " clip-rule="nonzero"/></clipPath><clipPath id="231a935c91"><rect x="0" width="37" y="0" height="33"/></clipPath><clipPath id="96c9f7f891"><path d="M 55.625 195.304688 L 92.046875 195.304688 L 92.046875 227.125 L 55.625 227.125 Z M 55.625 195.304688 " clip-rule="nonzero"/></clipPath><clipPath id="4e63e99a02"><path d="M 73.863281 227.125 L 55.679688 195.304688 L 92.046875 195.304688 Z M 73.863281 227.125 " clip-rule="nonzero"/></clipPath><clipPath id="9ee6cf6f51"><path d="M 0.625 0.304688 L 37.046875 0.304688 L 37.046875 32.125 L 0.625 32.125 Z M 0.625 0.304688 " clip-rule="nonzero"/></clipPath><clipPath id="f9535a15e2"><path d="M 18.863281 32.125 L 0.679688 0.304688 L 37.046875 0.304688 Z M 18.863281 32.125 " clip-rule="nonzero"/></clipPath><clipPath id="4596b20b7c"><rect x="0" width="38" y="0" height="33"/></clipPath><clipPath id="1c05e382e4"><path d="M 64.445312 177.878906 L 83.195312 177.878906 L 83.195312 193.628906 L 64.445312 193.628906 Z M 64.445312 177.878906 " clip-rule="nonzero"/></clipPath><clipPath id="5dc8b40198"><path d="M 84.648438 167.90625 L 99.648438 167.90625 L 99.648438 182.90625 L 84.648438 182.90625 Z M 84.648438 167.90625 " clip-rule="nonzero"/></clipPath><clipPath id="a2889a3d0f"><path d="M 48.667969 173 L 50 173 L 50 175 L 48.667969 175 Z M 48.667969 173 " clip-rule="nonzero"/></clipPath><clipPath id="0774c7f4ce"><path d="M 48.667969 178 L 50 178 L 50 179 L 48.667969 179 Z M 48.667969 178 " clip-rule="nonzero"/></clipPath><clipPath id="6f841234fa"><path d="M 48.667969 167.90625 L 62.917969 167.90625 L 62.917969 182.15625 L 48.667969 182.15625 Z M 48.667969 167.90625 " clip-rule="nonzero"/></clipPath><clipPath id="91ba2821d3"><path d="M 65.847656 199.363281 L 81.597656 199.363281 L 81.597656 211 L 65.847656 211 Z M 65.847656 199.363281 " clip-rule="nonzero"/></clipPath><clipPath id="b557881c3e"><path d="M 69 211 L 79 211 L 79 212.863281 L 69 212.863281 Z M 69 211 " clip-rule="nonzero"/></clipPath><clipPath id="289967325b"><path d="M 69.601562 200.910156 L 77.851562 200.910156 L 77.851562 207.660156 L 69.601562 207.660156 Z M 69.601562 200.910156 " clip-rule="nonzero"/></clipPath></defs><g fill="#ff914d" fill-opacity="1"><g transform="translate(106.368199, 197.737369)"><g><path d="M 19.15625 -33 L 32.484375 0 L 24.40625 0 L 21.953125 -6.59375 L 9.40625 -6.59375 L 6.953125 0 L -1.125 0 L 12.203125 -33 Z M 19.40625 -13.203125 L 15.71875 -22.796875 L 15.640625 -22.796875 L 11.953125 -13.203125 Z M 19.40625 -13.203125 "/></g></g></g><g fill="#ff914d" fill-opacity="1"><g transform="translate(142.765078, 197.737369)"><g><path d="M 21.28125 -33 L 21.28125 -26.40625 L 9.921875 -26.40625 L 9.921875 -19.84375 L 20.796875 -19.84375 L 20.796875 -13.234375 L 9.921875 -13.234375 L 9.921875 -6.59375 L 21.28125 -6.59375 L 21.28125 0 L 2.40625 0 L 2.40625 -33 Z M 21.28125 -33 "/></g></g></g><g fill="#2e17c2" fill-opacity="1"><g transform="translate(171.00882, 197.737369)"><g><path d="M 14.5625 -33.59375 C 16.34375 -33.59375 18.085938 -33.332031 19.796875 -32.8125 C 21.503906 -32.300781 22.769531 -31.789062 23.59375 -31.28125 L 24.796875 -30.484375 L 21.765625 -24.484375 C 21.523438 -24.640625 21.191406 -24.84375 20.765625 -25.09375 C 20.335938 -25.351562 19.535156 -25.695312 18.359375 -26.125 C 17.179688 -26.550781 16.085938 -26.765625 15.078125 -26.765625 C 13.828125 -26.765625 12.859375 -26.492188 12.171875 -25.953125 C 11.492188 -25.421875 11.15625 -24.703125 11.15625 -23.796875 C 11.15625 -23.347656 11.316406 -22.925781 11.640625 -22.53125 C 11.960938 -22.144531 12.507812 -21.734375 13.28125 -21.296875 C 14.050781 -20.859375 14.726562 -20.503906 15.3125 -20.234375 C 15.90625 -19.972656 16.816406 -19.578125 18.046875 -19.046875 C 20.171875 -18.140625 21.988281 -16.90625 23.5 -15.34375 C 25.007812 -13.78125 25.765625 -12.015625 25.765625 -10.046875 C 25.765625 -8.148438 25.421875 -6.492188 24.734375 -5.078125 C 24.054688 -3.660156 23.125 -2.550781 21.9375 -1.75 C 20.75 -0.957031 19.4375 -0.367188 18 0.015625 C 16.5625 0.398438 15 0.59375 13.3125 0.59375 C 11.875 0.59375 10.460938 0.445312 9.078125 0.15625 C 7.691406 -0.132812 6.53125 -0.5 5.59375 -0.9375 C 4.664062 -1.375 3.828125 -1.804688 3.078125 -2.234375 C 2.328125 -2.660156 1.78125 -3.019531 1.4375 -3.3125 L 0.921875 -3.765625 L 4.6875 -10.078125 C 5 -9.816406 5.4375 -9.476562 6 -9.0625 C 6.5625 -8.644531 7.554688 -8.085938 8.984375 -7.390625 C 10.410156 -6.703125 11.671875 -6.359375 12.765625 -6.359375 C 15.929688 -6.359375 17.515625 -7.4375 17.515625 -9.59375 C 17.515625 -10.050781 17.398438 -10.472656 17.171875 -10.859375 C 16.953125 -11.242188 16.554688 -11.628906 15.984375 -12.015625 C 15.410156 -12.398438 14.898438 -12.707031 14.453125 -12.9375 C 14.015625 -13.164062 13.296875 -13.515625 12.296875 -13.984375 C 11.296875 -14.453125 10.554688 -14.804688 10.078125 -15.046875 C 8.078125 -16.023438 6.53125 -17.253906 5.4375 -18.734375 C 4.34375 -20.210938 3.796875 -21.804688 3.796875 -23.515625 C 3.796875 -26.472656 4.890625 -28.890625 7.078125 -30.765625 C 9.265625 -32.648438 11.757812 -33.59375 14.5625 -33.59375 Z M 14.5625 -33.59375 "/></g></g></g><g fill="#2e17c2" fill-opacity="1"><g transform="translate(201.64622, 197.737369)"><g><path d="M 19.953125 -6.796875 C 21.109375 -6.796875 22.222656 -6.96875 23.296875 -7.3125 C 24.378906 -7.664062 25.175781 -8 25.6875 -8.3125 L 26.4375 -8.84375 L 29.640625 -2.4375 C 29.535156 -2.351562 29.390625 -2.242188 29.203125 -2.109375 C 29.015625 -1.984375 28.578125 -1.738281 27.890625 -1.375 C 27.210938 -1.019531 26.488281 -0.707031 25.71875 -0.4375 C 24.945312 -0.175781 23.929688 0.0546875 22.671875 0.265625 C 21.421875 0.484375 20.128906 0.59375 18.796875 0.59375 C 15.734375 0.59375 12.828125 -0.15625 10.078125 -1.65625 C 7.328125 -3.164062 5.113281 -5.238281 3.4375 -7.875 C 1.757812 -10.519531 0.921875 -13.375 0.921875 -16.4375 C 0.921875 -18.757812 1.410156 -20.984375 2.390625 -23.109375 C 3.378906 -25.242188 4.691406 -27.070312 6.328125 -28.59375 C 7.972656 -30.113281 9.890625 -31.328125 12.078125 -32.234375 C 14.265625 -33.140625 16.503906 -33.59375 18.796875 -33.59375 C 20.929688 -33.59375 22.898438 -33.335938 24.703125 -32.828125 C 26.503906 -32.328125 27.773438 -31.820312 28.515625 -31.3125 L 29.640625 -30.5625 L 26.4375 -24.15625 C 26.25 -24.320312 25.96875 -24.515625 25.59375 -24.734375 C 25.226562 -24.960938 24.484375 -25.265625 23.359375 -25.640625 C 22.242188 -26.015625 21.109375 -26.203125 19.953125 -26.203125 C 18.140625 -26.203125 16.515625 -25.90625 15.078125 -25.3125 C 13.640625 -24.726562 12.5 -23.957031 11.65625 -23 C 10.820312 -22.039062 10.179688 -21.003906 9.734375 -19.890625 C 9.296875 -18.785156 9.078125 -17.660156 9.078125 -16.515625 C 9.078125 -14.015625 10.015625 -11.769531 11.890625 -9.78125 C 13.773438 -7.789062 16.460938 -6.796875 19.953125 -6.796875 Z M 19.953125 -6.796875 "/></g></g></g><g fill="#2e17c2" fill-opacity="1"><g transform="translate(236.803211, 197.737369)"><g><path d="M 9.921875 -33 L 9.921875 0 L 2.40625 0 L 2.40625 -33 Z M 9.921875 -33 "/></g></g></g><g fill="#545454" fill-opacity="1"><g transform="translate(254.165064, 197.737369)"><g><path d="M 0.921875 -16.515625 C 0.921875 -21.296875 2.546875 -25.335938 5.796875 -28.640625 C 9.054688 -31.941406 12.976562 -33.59375 17.5625 -33.59375 C 22.175781 -33.59375 26.09375 -31.945312 29.3125 -28.65625 C 32.539062 -25.363281 34.15625 -21.316406 34.15625 -16.515625 C 34.15625 -11.691406 32.566406 -7.632812 29.390625 -4.34375 C 26.222656 -1.050781 22.28125 0.59375 17.5625 0.59375 C 12.726562 0.59375 8.742188 -1.035156 5.609375 -4.296875 C 2.484375 -7.566406 0.921875 -11.640625 0.921875 -16.515625 Z M 9.046875 -16.515625 C 9.046875 -14.785156 9.3125 -13.207031 9.84375 -11.78125 C 10.375 -10.351562 11.304688 -9.144531 12.640625 -8.15625 C 13.972656 -7.175781 15.613281 -6.6875 17.5625 -6.6875 C 20.363281 -6.6875 22.476562 -7.644531 23.90625 -9.5625 C 25.332031 -11.476562 26.046875 -13.796875 26.046875 -16.515625 C 26.046875 -19.210938 25.316406 -21.523438 23.859375 -23.453125 C 22.410156 -25.390625 20.3125 -26.359375 17.5625 -26.359375 C 14.84375 -26.359375 12.742188 -25.390625 11.265625 -23.453125 C 9.785156 -21.523438 9.046875 -19.210938 9.046875 -16.515625 Z M 9.046875 -16.515625 "/></g></g></g><g fill="#545454" fill-opacity="1"><g transform="translate(294.28157, 197.737369)"><g><path d="M 9.921875 -20.484375 L 9.921875 0 L 2.40625 0 L 2.40625 -33 L 9.921875 -33 L 23.046875 -12.515625 L 23.125 -12.515625 L 23.125 -33 L 30.640625 -33 L 30.640625 0 L 23.125 0 L 10 -20.484375 Z M 9.921875 -20.484375 "/></g></g></g><g clip-path="url(#f8b9eef064)"><g clip-path="url(#882bcd2f5b)"><g transform="matrix(1, 0, 0, 1, 73, 163)"><g clip-path="url(#2bcb05366b)"><g clip-path="url(#6a815f7889)"><g clip-path="url(#68d8ee19ae)"><path fill="#ff914d" d="M 37.230469 32.304688 L 0.808594 32.304688 L 0.808594 0.480469 L 37.230469 0.480469 Z M 37.230469 32.304688 " fill-opacity="1" fill-rule="nonzero"/></g></g></g></g></g></g><g clip-path="url(#d194acbece)"><g clip-path="url(#63b978f124)"><g transform="matrix(1, 0, 0, 1, 37, 163)"><g clip-path="url(#231a935c91)"><g clip-path="url(#9618319927)"><g clip-path="url(#ef5f10eabd)"><path fill="#2e17c2" d="M 36.863281 32.304688 L 0.441406 32.304688 L 0.441406 0.480469 L 36.863281 0.480469 Z M 36.863281 32.304688 " fill-opacity="1" fill-rule="nonzero"/></g></g></g></g></g></g><g clip-path="url(#96c9f7f891)"><g clip-path="url(#4e63e99a02)"><g transform="matrix(1, 0, 0, 1, 55, 195)"><g clip-path="url(#4596b20b7c)"><g clip-path="url(#9ee6cf6f51)"><g clip-path="url(#f9535a15e2)"><path fill="#545454" d="M 37.046875 32.125 L 0.625 32.125 L 0.625 0.304688 L 37.046875 0.304688 Z M 37.046875 32.125 " fill-opacity="1" fill-rule="nonzero"/></g></g></g></g></g></g><g clip-path="url(#1c05e382e4)"><path fill="#2e17c2" d="M 67.875 186.59375 L 67.875 190.019531 L 73.867188 193.289062 L 79.859375 190.019531 L 79.859375 186.59375 L 73.867188 189.863281 Z M 73.867188 177.878906 L 64.449219 183.015625 L 73.867188 188.152344 L 81.574219 183.949219 L 81.574219 189.863281 L 83.285156 189.863281 L 83.285156 183.015625 Z M 73.867188 177.878906 " fill-opacity="1" fill-rule="nonzero"/></g><g clip-path="url(#5dc8b40198)"><path fill="#ffffff" d="M 88.679688 170.816406 L 90.710938 170.816406 L 90.328125 169.054688 C 90.070312 168.996094 89.878906 168.761719 89.878906 168.492188 C 89.878906 168.164062 90.136719 167.90625 90.464844 167.90625 C 90.789062 167.90625 91.046875 168.164062 91.046875 168.492188 C 91.046875 168.761719 90.855469 168.996094 90.597656 169.054688 L 90.980469 170.816406 L 93.011719 170.816406 L 92.632812 169.054688 C 92.382812 168.984375 92.195312 168.761719 92.195312 168.492188 C 92.195312 168.164062 92.453125 167.90625 92.777344 167.90625 C 93.09375 167.90625 93.363281 168.164062 93.363281 168.492188 C 93.363281 168.773438 93.160156 168.996094 92.902344 169.054688 L 93.28125 170.816406 L 95.4375 170.816406 C 95.976562 170.816406 96.4375 171.21875 96.515625 171.746094 L 98.292969 171.367188 C 98.3125 171.0625 98.5625 170.828125 98.875 170.828125 C 99.191406 170.828125 99.449219 171.085938 99.449219 171.410156 C 99.449219 171.738281 99.191406 171.996094 98.875 171.996094 C 98.628906 171.996094 98.414062 171.835938 98.324219 171.625 L 96.527344 172.015625 L 96.527344 174.039062 L 98.292969 173.667969 C 98.3125 173.375 98.570312 173.140625 98.875 173.140625 C 99.191406 173.140625 99.449219 173.398438 99.449219 173.722656 C 99.449219 174.050781 99.191406 174.308594 98.875 174.308594 C 98.617188 174.308594 98.402344 174.152344 98.324219 173.925781 L 96.527344 174.308594 L 96.527344 176.339844 L 98.292969 175.96875 C 98.324219 175.679688 98.570312 175.453125 98.875 175.453125 C 99.191406 175.453125 99.449219 175.710938 99.449219 176.039062 C 99.449219 176.351562 99.191406 176.621094 98.875 176.621094 C 98.617188 176.621094 98.402344 176.453125 98.324219 176.230469 L 96.527344 176.609375 L 96.527344 178.6875 C 96.527344 179.226562 96.125 179.6875 95.597656 179.765625 L 95.976562 181.550781 C 96.28125 181.5625 96.527344 181.820312 96.527344 182.136719 C 96.527344 182.449219 96.269531 182.707031 95.945312 182.707031 C 95.628906 182.707031 95.371094 182.449219 95.371094 182.136719 C 95.371094 181.886719 95.507812 181.6875 95.71875 181.597656 L 95.328125 179.777344 L 93.292969 179.777344 L 93.675781 181.550781 C 93.980469 181.574219 94.214844 181.820312 94.214844 182.136719 C 94.214844 182.449219 93.957031 182.707031 93.632812 182.707031 C 93.316406 182.707031 93.058594 182.449219 93.058594 182.136719 C 93.058594 181.886719 93.203125 181.675781 93.417969 181.597656 L 93.023438 179.777344 L 90.992188 179.777344 L 91.375 181.550781 C 91.675781 181.574219 91.902344 181.820312 91.902344 182.136719 C 91.902344 182.449219 91.644531 182.707031 91.316406 182.707031 C 91.003906 182.707031 90.746094 182.449219 90.746094 182.136719 C 90.746094 181.878906 90.902344 181.675781 91.117188 181.585938 L 90.722656 179.777344 L 88.667969 179.777344 C 88.164062 179.777344 87.734375 179.429688 87.601562 178.96875 L 85.792969 179.351562 C 85.726562 179.609375 85.5 179.789062 85.230469 179.789062 C 84.90625 179.789062 84.648438 179.53125 84.648438 179.203125 C 84.648438 178.890625 84.90625 178.632812 85.230469 178.632812 C 85.511719 178.632812 85.738281 178.824219 85.792969 179.082031 L 87.566406 178.710938 C 87.566406 178.699219 87.566406 178.6875 87.566406 178.6875 L 87.566406 176.679688 L 85.792969 177.058594 C 85.714844 177.296875 85.488281 177.476562 85.230469 177.476562 C 84.90625 177.476562 84.648438 177.21875 84.648438 176.890625 C 84.648438 176.578125 84.90625 176.320312 85.230469 176.320312 C 85.511719 176.320312 85.746094 176.519531 85.804688 176.789062 L 87.566406 176.410156 L 87.566406 174.375 L 85.78125 174.757812 C 85.714844 174.992188 85.488281 175.160156 85.230469 175.160156 C 84.90625 175.160156 84.648438 174.902344 84.648438 174.578125 C 84.648438 174.261719 84.90625 174.003906 85.230469 174.003906 C 85.511719 174.003906 85.757812 174.207031 85.804688 174.488281 L 87.566406 174.105469 L 87.566406 171.90625 C 87.566406 171.386719 87.9375 170.960938 88.421875 170.847656 L 88.039062 169.0625 C 87.769531 169.007812 87.566406 168.773438 87.566406 168.492188 C 87.566406 168.164062 87.824219 167.90625 88.152344 167.90625 C 88.476562 167.90625 88.734375 168.164062 88.734375 168.492188 C 88.734375 168.761719 88.542969 168.984375 88.296875 169.054688 Z M 88.902344 171.117188 L 95.191406 171.117188 C 95.742188 171.117188 96.191406 171.566406 96.191406 172.117188 L 96.191406 178.472656 C 96.191406 179.023438 95.742188 179.472656 95.191406 179.472656 L 88.902344 179.472656 C 88.351562 179.472656 87.902344 179.023438 87.902344 178.472656 L 87.902344 172.117188 C 87.902344 171.566406 88.351562 171.117188 88.902344 171.117188 Z M 88.902344 171.117188 " fill-opacity="1" fill-rule="evenodd"/></g><path fill="#ffffff" d="M 93.519531 177.417969 L 92.609375 177.417969 L 92.238281 176.453125 L 90.554688 176.453125 L 90.207031 177.417969 L 89.296875 177.417969 L 90.9375 173.207031 L 91.835938 173.207031 Z M 91.96875 175.746094 L 91.375 174.183594 L 90.8125 175.746094 Z M 93.945312 177.417969 L 93.945312 173.207031 L 94.800781 173.207031 L 94.800781 177.417969 Z M 93.945312 177.417969 " fill-opacity="1" fill-rule="nonzero"/><path fill="#ffffff" d="M 59.015625 177.566406 C 59.335938 177.121094 59.507812 176.597656 59.507812 176.042969 L 59.507812 171.746094 C 59.507812 171.53125 59.394531 171.332031 59.210938 171.226562 C 58.277344 170.671875 57.253906 170.269531 56.171875 170.039062 C 56.066406 170.015625 55.960938 170.003906 55.855469 170.003906 C 55.75 170.003906 55.644531 170.015625 55.539062 170.039062 C 54.453125 170.269531 53.429688 170.671875 52.496094 171.226562 C 52.316406 171.332031 52.203125 171.53125 52.203125 171.746094 L 52.203125 176.042969 C 52.203125 176.597656 52.371094 177.121094 52.691406 177.566406 C 53.367188 178.503906 54.375 179.199219 55.855469 179.75 C 57.335938 179.199219 58.339844 178.503906 59.015625 177.566406 Z M 55.003906 173.664062 C 55.003906 173.195312 55.386719 172.8125 55.855469 172.8125 C 56.324219 172.8125 56.703125 173.195312 56.703125 173.664062 C 56.703125 174.007812 56.496094 174.304688 56.203125 174.4375 L 56.613281 176.996094 L 55.097656 176.996094 L 55.507812 174.4375 C 55.210938 174.304688 55.003906 174.007812 55.003906 173.664062 Z M 55.003906 173.664062 " fill-opacity="1" fill-rule="nonzero"/><path fill="#ffffff" d="M 55.179688 180.929688 C 54.261719 180.832031 53.398438 180.535156 52.613281 180.050781 C 52.558594 180.015625 52.488281 180.035156 52.457031 180.085938 C 52.421875 180.140625 52.4375 180.210938 52.492188 180.242188 C 53.308594 180.746094 54.203125 181.054688 55.15625 181.15625 C 55.160156 181.15625 55.164062 181.15625 55.167969 181.15625 C 55.226562 181.15625 55.273438 181.113281 55.28125 181.054688 C 55.289062 180.992188 55.242188 180.9375 55.179688 180.929688 Z M 55.179688 180.929688 " fill-opacity="1" fill-rule="nonzero"/><path fill="#ffffff" d="M 51.863281 169.394531 C 51.886719 169.394531 51.910156 169.386719 51.929688 169.375 C 52.601562 168.882812 53.351562 168.53125 54.152344 168.320312 C 54.210938 168.304688 54.25 168.242188 54.234375 168.179688 C 54.214844 168.121094 54.152344 168.082031 54.09375 168.097656 C 53.265625 168.316406 52.492188 168.683594 51.796875 169.1875 C 51.746094 169.226562 51.734375 169.296875 51.769531 169.347656 C 51.792969 169.378906 51.828125 169.394531 51.863281 169.394531 Z M 51.863281 169.394531 " fill-opacity="1" fill-rule="nonzero"/><path fill="#ffffff" d="M 49.1875 173.449219 C 49.195312 173.453125 49.203125 173.453125 49.210938 173.453125 C 49.265625 173.453125 49.3125 173.417969 49.324219 173.363281 C 49.453125 172.765625 49.664062 172.191406 49.949219 171.652344 C 49.980469 171.597656 49.957031 171.527344 49.902344 171.496094 C 49.847656 171.46875 49.777344 171.488281 49.75 171.546875 C 49.453125 172.101562 49.234375 172.699219 49.101562 173.316406 C 49.085938 173.375 49.125 173.4375 49.1875 173.449219 Z M 49.1875 173.449219 " fill-opacity="1" fill-rule="nonzero"/><g clip-path="url(#a2889a3d0f)"><path fill="#ffffff" d="M 49 173.914062 C 48.964844 174.199219 48.945312 174.492188 48.945312 174.78125 C 48.945312 174.84375 48.996094 174.894531 49.058594 174.894531 C 49.121094 174.894531 49.171875 174.84375 49.171875 174.78125 C 49.171875 174.5 49.191406 174.21875 49.226562 173.941406 C 49.234375 173.878906 49.1875 173.824219 49.125 173.816406 C 49.0625 173.808594 49.007812 173.851562 49 173.914062 Z M 49 173.914062 " fill-opacity="1" fill-rule="nonzero"/></g><path fill="#ffffff" d="M 53.46875 180.140625 C 53.445312 180.199219 53.472656 180.265625 53.53125 180.289062 C 53.984375 180.480469 54.457031 180.617188 54.945312 180.691406 C 54.949219 180.691406 54.957031 180.691406 54.960938 180.691406 C 55.019531 180.691406 55.066406 180.652344 55.074219 180.59375 C 55.085938 180.53125 55.042969 180.472656 54.980469 180.464844 C 54.511719 180.394531 54.054688 180.261719 53.617188 180.078125 C 53.558594 180.054688 53.492188 180.082031 53.46875 180.140625 Z M 53.46875 180.140625 " fill-opacity="1" fill-rule="nonzero"/><g clip-path="url(#0774c7f4ce)"><path fill="#ffffff" d="M 48.898438 178.367188 C 48.898438 178.421875 48.941406 178.464844 48.992188 178.464844 C 49.046875 178.464844 49.089844 178.421875 49.089844 178.367188 C 49.089844 178.316406 49.046875 178.273438 48.992188 178.273438 C 48.941406 178.273438 48.898438 178.316406 48.898438 178.367188 Z M 48.898438 178.367188 " fill-opacity="1" fill-rule="nonzero"/></g><path fill="#ffffff" d="M 61.324219 168.578125 C 61.375 168.578125 61.417969 168.535156 61.417969 168.484375 C 61.417969 168.429688 61.375 168.386719 61.324219 168.386719 C 61.273438 168.386719 61.230469 168.429688 61.230469 168.484375 C 61.230469 168.535156 61.273438 168.578125 61.324219 168.578125 Z M 61.324219 168.578125 " fill-opacity="1" fill-rule="nonzero"/><path fill="#ffffff" d="M 50.035156 181.484375 C 49.980469 181.484375 49.9375 181.527344 49.9375 181.578125 C 49.9375 181.628906 49.980469 181.671875 50.035156 181.671875 C 50.085938 181.671875 50.128906 181.628906 50.128906 181.578125 C 50.128906 181.527344 50.085938 181.484375 50.035156 181.484375 Z M 50.035156 181.484375 " fill-opacity="1" fill-rule="nonzero"/><g clip-path="url(#6f841234fa)"><path fill="#ffffff" d="M 61.78125 169.929688 C 61.84375 169.929688 61.894531 169.875 61.894531 169.8125 L 61.894531 169.277344 L 62.582031 169.277344 C 62.644531 169.277344 62.695312 169.226562 62.695312 169.164062 C 62.695312 169.101562 62.644531 169.050781 62.582031 169.050781 L 60.039062 169.050781 L 60.039062 168.597656 L 60.757812 168.597656 C 60.820312 168.597656 60.871094 168.546875 60.871094 168.484375 C 60.871094 168.421875 60.820312 168.371094 60.757812 168.371094 L 59.925781 168.371094 C 59.863281 168.371094 59.8125 168.421875 59.8125 168.484375 L 59.8125 169.121094 L 59.484375 169.5 C 58.703125 168.960938 57.800781 168.589844 56.816406 168.441406 L 56.816406 168.019531 C 56.816406 167.957031 56.765625 167.90625 56.703125 167.90625 C 56.640625 167.90625 56.589844 167.957031 56.589844 168.019531 L 56.589844 169.28125 C 56.347656 169.25 56.105469 169.230469 55.855469 169.230469 C 55.605469 169.230469 55.359375 169.25 55.121094 169.28125 L 55.121094 168.539062 C 55.121094 168.539062 55.117188 168.535156 55.117188 168.53125 C 55.117188 168.53125 55.121094 168.527344 55.117188 168.523438 C 55.117188 168.519531 55.117188 168.515625 55.113281 168.511719 C 55.113281 168.503906 55.109375 168.496094 55.105469 168.488281 C 55.101562 168.480469 55.097656 168.476562 55.09375 168.46875 C 55.089844 168.464844 55.085938 168.460938 55.082031 168.457031 C 55.074219 168.449219 55.066406 168.445312 55.0625 168.441406 C 55.054688 168.4375 55.050781 168.4375 55.042969 168.433594 C 55.035156 168.429688 55.027344 168.429688 55.019531 168.429688 C 55.015625 168.429688 55.011719 168.425781 55.007812 168.425781 C 55.003906 168.425781 55 168.425781 55 168.425781 C 54.996094 168.425781 54.992188 168.425781 54.992188 168.425781 C 53.636719 168.609375 52.402344 169.207031 51.414062 170.160156 L 51.089844 169.855469 C 51.070312 169.835938 51.042969 169.824219 51.011719 169.824219 L 49.535156 169.824219 L 49.535156 168.90625 C 49.535156 168.84375 49.480469 168.792969 49.417969 168.792969 C 49.355469 168.792969 49.304688 168.84375 49.304688 168.90625 L 49.304688 169.824219 L 48.785156 169.824219 C 48.722656 169.824219 48.671875 169.878906 48.671875 169.941406 C 48.671875 170.003906 48.722656 170.054688 48.785156 170.054688 L 48.957031 170.054688 L 48.957031 171.46875 C 48.957031 171.53125 49.007812 171.582031 49.070312 171.582031 C 49.132812 171.582031 49.183594 171.53125 49.183594 171.46875 L 49.183594 170.054688 L 50.105469 170.054688 L 50.105469 170.585938 C 50.105469 170.648438 50.15625 170.699219 50.21875 170.699219 C 50.28125 170.699219 50.332031 170.648438 50.332031 170.585938 L 50.332031 170.054688 L 50.96875 170.054688 L 51.882812 170.910156 C 51.582031 171.21875 51.316406 171.5625 51.089844 171.9375 L 50.484375 171.503906 C 50.484375 171.503906 50.480469 171.503906 50.480469 171.503906 C 50.476562 171.503906 50.476562 171.5 50.476562 171.5 C 50.46875 171.496094 50.464844 171.496094 50.460938 171.496094 C 50.453125 171.492188 50.445312 171.488281 50.4375 171.488281 C 50.429688 171.484375 50.421875 171.488281 50.417969 171.488281 C 50.410156 171.488281 50.402344 171.488281 50.394531 171.488281 C 50.386719 171.488281 50.378906 171.492188 50.375 171.496094 C 50.367188 171.5 50.359375 171.5 50.355469 171.503906 C 50.347656 171.507812 50.34375 171.515625 50.335938 171.519531 C 50.332031 171.523438 50.328125 171.527344 50.324219 171.53125 C 50.324219 171.535156 50.324219 171.535156 50.324219 171.535156 C 50.324219 171.539062 50.320312 171.539062 50.320312 171.539062 C 49.746094 172.519531 49.441406 173.640625 49.441406 174.78125 C 49.441406 176.339844 50.007812 177.84375 51.035156 179.011719 C 51.058594 179.039062 51.089844 179.050781 51.121094 179.050781 C 51.148438 179.050781 51.171875 179.042969 51.195312 179.023438 C 51.242188 178.980469 51.246094 178.910156 51.207031 178.863281 C 51.042969 178.679688 50.894531 178.484375 50.757812 178.285156 L 51.214844 177.835938 C 51.664062 178.519531 52.265625 179.101562 52.992188 179.539062 L 49.109375 179.539062 L 49.109375 178.9375 C 49.109375 178.875 49.058594 178.824219 48.992188 178.824219 C 48.929688 178.824219 48.878906 178.875 48.878906 178.9375 L 48.878906 179.652344 C 48.878906 179.714844 48.929688 179.765625 48.992188 179.765625 L 49.917969 179.765625 L 49.917969 180.988281 C 49.917969 181.050781 49.96875 181.101562 50.035156 181.101562 C 50.097656 181.101562 50.148438 181.050781 50.148438 180.988281 L 50.148438 179.765625 L 50.742188 179.765625 L 50.742188 180.320312 C 50.742188 180.382812 50.792969 180.433594 50.855469 180.433594 C 50.921875 180.433594 50.972656 180.382812 50.972656 180.320312 L 50.972656 179.765625 L 53.4375 179.765625 C 53.441406 179.765625 53.449219 179.765625 53.453125 179.765625 C 53.460938 179.761719 53.46875 179.761719 53.480469 179.757812 C 53.484375 179.757812 53.492188 179.753906 53.496094 179.75 C 53.503906 179.746094 53.507812 179.742188 53.515625 179.734375 C 53.519531 179.730469 53.523438 179.722656 53.53125 179.71875 C 53.53125 179.710938 53.539062 179.710938 53.539062 179.703125 C 53.539062 179.703125 53.539062 179.703125 53.539062 179.699219 C 53.542969 179.695312 53.546875 179.6875 53.546875 179.679688 C 53.546875 179.671875 53.550781 179.664062 53.550781 179.65625 C 53.550781 179.65625 53.550781 179.652344 53.550781 179.652344 C 53.550781 179.648438 53.550781 179.640625 53.550781 179.636719 C 53.546875 179.628906 53.546875 179.621094 53.542969 179.613281 C 53.542969 179.605469 53.539062 179.601562 53.535156 179.59375 C 53.53125 179.585938 53.527344 179.582031 53.519531 179.574219 C 53.515625 179.570312 53.507812 179.566406 53.5 179.5625 C 53.496094 179.558594 53.492188 179.554688 53.488281 179.550781 C 52.585938 179.101562 51.855469 178.429688 51.34375 177.617188 C 51.339844 177.601562 51.332031 177.585938 51.316406 177.570312 C 50.8125 176.75 50.53125 175.792969 50.53125 174.78125 C 50.53125 171.847656 52.917969 169.460938 55.855469 169.460938 C 58.789062 169.460938 61.175781 171.847656 61.175781 174.78125 C 61.175781 177.714844 58.789062 180.105469 55.855469 180.105469 C 55.792969 180.105469 55.742188 180.15625 55.742188 180.21875 L 55.742188 182.160156 C 55.742188 182.222656 55.792969 182.273438 55.855469 182.273438 C 55.917969 182.273438 55.96875 182.222656 55.96875 182.160156 L 55.96875 181.777344 L 56.996094 181.777344 C 57.058594 181.777344 57.109375 181.726562 57.109375 181.664062 C 57.109375 181.601562 57.058594 181.550781 56.996094 181.550781 L 55.96875 181.550781 L 55.96875 181.191406 C 57.609375 181.164062 59.144531 180.523438 60.320312 179.382812 L 60.492188 179.589844 C 59.898438 180.164062 59.214844 180.617188 58.457031 180.9375 C 58.398438 180.964844 58.371094 181.03125 58.394531 181.089844 C 58.414062 181.132812 58.457031 181.15625 58.5 181.15625 C 58.515625 181.15625 58.53125 181.15625 58.542969 181.148438 C 59.324219 180.820312 60.03125 180.351562 60.640625 179.761719 L 61.066406 180.261719 L 61.066406 180.910156 C 61.066406 180.972656 61.117188 181.023438 61.179688 181.023438 C 61.242188 181.023438 61.292969 180.972656 61.292969 180.910156 L 61.292969 180.332031 L 61.601562 180.332031 L 61.601562 181.355469 C 61.601562 181.417969 61.652344 181.46875 61.71875 181.46875 C 61.78125 181.46875 61.832031 181.417969 61.832031 181.355469 L 61.832031 180.332031 L 62.527344 180.332031 C 62.589844 180.332031 62.640625 180.28125 62.640625 180.21875 C 62.640625 180.15625 62.589844 180.105469 62.527344 180.105469 L 61.230469 180.105469 L 59.917969 178.558594 C 60.019531 178.445312 60.121094 178.332031 60.214844 178.210938 L 61.207031 179.28125 C 61.230469 179.304688 61.257812 179.316406 61.289062 179.316406 L 62.339844 179.316406 C 62.402344 179.316406 62.453125 179.265625 62.453125 179.203125 C 62.453125 179.140625 62.402344 179.089844 62.339844 179.089844 L 61.917969 179.089844 L 61.917969 178.355469 C 61.917969 178.292969 61.867188 178.238281 61.804688 178.238281 C 61.738281 178.238281 61.6875 178.292969 61.6875 178.355469 L 61.6875 179.089844 L 61.339844 179.089844 L 60.652344 178.34375 C 60.890625 178.023438 61.097656 177.683594 61.265625 177.324219 C 61.292969 177.265625 61.269531 177.199219 61.210938 177.171875 C 61.152344 177.144531 61.085938 177.167969 61.058594 177.226562 C 60.902344 177.558594 60.710938 177.875 60.492188 178.175781 L 60.355469 178.027344 C 61.015625 177.113281 61.40625 175.992188 61.40625 174.78125 C 61.40625 172.050781 59.421875 169.773438 56.816406 169.316406 L 56.816406 168.671875 C 59.804688 169.140625 62.039062 171.742188 62.039062 174.78125 C 62.039062 175.246094 61.988281 175.710938 61.886719 176.164062 C 61.871094 176.222656 61.910156 176.285156 61.972656 176.300781 C 61.980469 176.300781 61.988281 176.300781 61.996094 176.300781 C 62.046875 176.300781 62.09375 176.265625 62.105469 176.214844 C 62.214844 175.746094 62.269531 175.265625 62.269531 174.78125 C 62.269531 172.699219 61.253906 170.8125 59.667969 169.632812 L 59.976562 169.277344 L 60.929688 169.277344 L 60.929688 170.257812 C 60.929688 170.324219 60.980469 170.375 61.042969 170.375 C 61.105469 170.375 61.15625 170.324219 61.15625 170.257812 L 61.15625 169.277344 L 61.667969 169.277344 L 61.667969 169.8125 C 61.667969 169.875 61.71875 169.929688 61.78125 169.929688 Z M 50.304688 174.78125 C 50.304688 175.8125 50.582031 176.792969 51.089844 177.636719 L 50.628906 178.089844 C 50.007812 177.109375 49.667969 175.960938 49.667969 174.78125 C 49.667969 173.722656 49.941406 172.683594 50.453125 171.765625 L 50.976562 172.136719 C 50.546875 172.921875 50.304688 173.824219 50.304688 174.78125 Z M 54.890625 169.316406 C 53.800781 169.507812 52.820312 170.019531 52.046875 170.75 L 51.578125 170.3125 C 52.5 169.433594 53.640625 168.867188 54.890625 168.671875 Z M 60.171875 179.210938 C 59.035156 180.316406 57.554688 180.9375 55.96875 180.964844 L 55.96875 180.328125 C 57.445312 180.300781 58.78125 179.691406 59.757812 178.722656 Z M 60.171875 179.210938 " fill-opacity="1" fill-rule="nonzero"/></g><g clip-path="url(#91ba2821d3)"><path fill="#ffffff" d="M 81.1875 207.90625 L 66.546875 207.90625 L 66.546875 200.132812 C 66.546875 200.097656 66.574219 200.070312 66.609375 200.070312 L 81.125 200.070312 C 81.160156 200.070312 81.1875 200.097656 81.1875 200.132812 Z M 75.472656 209.414062 C 75.398438 209.488281 75.292969 209.535156 75.179688 209.535156 L 72.558594 209.535156 C 72.328125 209.535156 72.140625 209.347656 72.140625 209.117188 C 72.140625 209.003906 72.1875 208.898438 72.261719 208.824219 C 72.335938 208.75 72.441406 208.703125 72.558594 208.703125 L 75.179688 208.703125 C 75.410156 208.703125 75.59375 208.886719 75.59375 209.117188 C 75.59375 209.234375 75.546875 209.339844 75.472656 209.414062 Z M 81.125 199.371094 L 66.609375 199.371094 C 66.1875 199.371094 65.847656 199.710938 65.847656 200.132812 L 65.847656 209.367188 C 65.847656 209.789062 66.1875 210.132812 66.609375 210.132812 L 81.125 210.132812 C 81.546875 210.132812 81.890625 209.789062 81.890625 209.367188 L 81.890625 200.132812 C 81.890625 199.710938 81.546875 199.371094 81.125 199.371094 " fill-opacity="1" fill-rule="nonzero"/></g><path fill="#ffffff" d="M 75.386719 209.117188 C 75.386719 209.175781 75.363281 209.226562 75.324219 209.265625 C 75.285156 209.304688 75.234375 209.324219 75.179688 209.324219 L 72.558594 209.324219 C 72.441406 209.324219 72.351562 209.234375 72.351562 209.117188 C 72.351562 209.0625 72.371094 209.011719 72.410156 208.972656 C 72.449219 208.933594 72.503906 208.910156 72.558594 208.910156 L 75.179688 208.910156 C 75.292969 208.910156 75.386719 209.003906 75.386719 209.117188 " fill-opacity="1" fill-rule="nonzero"/><g clip-path="url(#b557881c3e)"><path fill="#ffffff" d="M 78.585938 212.636719 L 69.148438 212.636719 C 69.335938 212.085938 69.859375 211.6875 70.46875 211.6875 L 77.265625 211.6875 C 77.878906 211.6875 78.398438 212.085938 78.585938 212.636719 " fill-opacity="1" fill-rule="nonzero"/></g><path fill="#ffffff" d="M 75.664062 211.4375 L 72.070312 211.4375 L 72.425781 210.386719 L 75.308594 210.386719 L 75.664062 211.4375 " fill-opacity="1" fill-rule="nonzero"/><g clip-path="url(#289967325b)"><path fill="#ffffff" d="M 73.867188 206.300781 C 73.679688 206.300781 73.511719 206.375 73.390625 206.492188 L 73.382812 206.5 C 73.257812 206.625 73.179688 206.796875 73.179688 206.984375 C 73.179688 207.175781 73.257812 207.347656 73.382812 207.46875 C 73.503906 207.59375 73.675781 207.671875 73.867188 207.671875 C 74.050781 207.671875 74.21875 207.597656 74.339844 207.476562 L 74.351562 207.46875 C 74.472656 207.347656 74.550781 207.175781 74.550781 206.984375 C 74.550781 206.796875 74.472656 206.625 74.351562 206.5 C 74.226562 206.378906 74.054688 206.300781 73.867188 206.300781 Z M 74.15625 207.277344 L 74.148438 207.285156 C 74.078125 207.355469 73.976562 207.398438 73.867188 207.398438 C 73.75 207.398438 73.648438 207.351562 73.574219 207.277344 C 73.5 207.203125 73.453125 207.101562 73.453125 206.984375 C 73.453125 206.871094 73.5 206.769531 73.574219 206.695312 L 73.582031 206.6875 C 73.65625 206.617188 73.753906 206.574219 73.867188 206.574219 C 73.980469 206.574219 74.082031 206.621094 74.15625 206.695312 C 74.230469 206.769531 74.277344 206.875 74.277344 206.984375 C 74.277344 207.101562 74.230469 207.203125 74.15625 207.277344 Z M 76.753906 203.929688 C 76.375 203.550781 75.925781 203.25 75.425781 203.039062 C 74.945312 202.839844 74.417969 202.730469 73.863281 202.730469 C 73.3125 202.730469 72.785156 202.839844 72.300781 203.039062 C 71.800781 203.25 71.351562 203.550781 70.976562 203.929688 L 70.921875 203.984375 C 70.871094 204.039062 70.871094 204.121094 70.921875 204.175781 L 71.507812 204.773438 C 71.5625 204.824219 71.648438 204.828125 71.703125 204.773438 L 71.761719 204.714844 C 72.035156 204.4375 72.363281 204.21875 72.726562 204.066406 C 73.078125 203.921875 73.460938 203.84375 73.863281 203.84375 C 74.265625 203.84375 74.652344 203.921875 75 204.066406 C 75.363281 204.214844 75.691406 204.4375 75.96875 204.714844 C 75.988281 204.730469 76.007812 204.753906 76.027344 204.769531 C 76.078125 204.824219 76.164062 204.824219 76.21875 204.773438 L 76.804688 204.175781 C 76.859375 204.121094 76.859375 204.035156 76.804688 203.984375 C 76.800781 203.976562 76.753906 203.929688 76.753906 203.929688 Z M 76.128906 204.484375 C 75.835938 204.203125 75.492188 203.972656 75.109375 203.816406 C 74.726562 203.660156 74.304688 203.570312 73.867188 203.570312 C 73.425781 203.570312 73.007812 203.65625 72.625 203.816406 C 72.242188 203.972656 71.898438 204.203125 71.605469 204.484375 L 71.214844 204.082031 C 71.558594 203.75 71.964844 203.480469 72.410156 203.296875 C 72.859375 203.109375 73.351562 203.007812 73.867188 203.007812 C 74.386719 203.007812 74.878906 203.109375 75.328125 203.296875 C 75.773438 203.480469 76.179688 203.75 76.523438 204.082031 Z M 78.078125 202.683594 C 78.070312 202.679688 78.039062 202.644531 78.039062 202.644531 C 77.492188 202.101562 76.84375 201.660156 76.121094 201.363281 C 75.425781 201.074219 74.664062 200.914062 73.863281 200.914062 C 73.066406 200.914062 72.304688 201.074219 71.609375 201.363281 C 70.882812 201.660156 70.234375 202.101562 69.691406 202.644531 L 69.652344 202.683594 C 69.601562 202.738281 69.601562 202.820312 69.652344 202.875 L 70.238281 203.472656 C 70.289062 203.527344 70.378906 203.527344 70.429688 203.476562 L 70.476562 203.429688 C 70.917969 202.984375 71.445312 202.628906 72.03125 202.386719 C 72.597656 202.15625 73.214844 202.023438 73.863281 202.027344 C 74.511719 202.027344 75.132812 202.15625 75.699219 202.386719 C 76.28125 202.628906 76.808594 202.984375 77.253906 203.429688 C 77.269531 203.441406 77.285156 203.460938 77.296875 203.472656 C 77.351562 203.527344 77.4375 203.527344 77.492188 203.476562 L 78.078125 202.875 C 78.132812 202.820312 78.128906 202.734375 78.078125 202.683594 Z M 77.398438 203.183594 C 76.941406 202.742188 76.402344 202.382812 75.804688 202.136719 C 75.207031 201.886719 74.554688 201.75 73.867188 201.75 C 73.179688 201.75 72.527344 201.886719 71.929688 202.136719 C 71.332031 202.382812 70.789062 202.742188 70.335938 203.183594 L 69.945312 202.78125 C 70.453125 202.289062 71.050781 201.890625 71.714844 201.613281 C 72.378906 201.339844 73.105469 201.1875 73.867188 201.1875 C 74.632812 201.1875 75.359375 201.339844 76.023438 201.613281 C 76.683594 201.890625 77.285156 202.289062 77.792969 202.78125 Z M 75.425781 205.257812 C 75.21875 205.054688 74.976562 204.890625 74.707031 204.78125 C 74.445312 204.671875 74.160156 204.613281 73.863281 204.613281 C 73.566406 204.613281 73.28125 204.671875 73.019531 204.78125 C 72.75 204.890625 72.507812 205.054688 72.304688 205.257812 C 72.28125 205.28125 72.257812 205.308594 72.234375 205.332031 C 72.1875 205.386719 72.1875 205.46875 72.238281 205.519531 L 72.824219 206.117188 C 72.878906 206.171875 72.964844 206.171875 73.019531 206.121094 L 73.058594 206.078125 L 73.089844 206.042969 C 73.191406 205.941406 73.3125 205.859375 73.445312 205.804688 C 73.574219 205.753906 73.714844 205.722656 73.867188 205.722656 C 74.015625 205.722656 74.15625 205.753906 74.285156 205.804688 C 74.421875 205.859375 74.542969 205.941406 74.640625 206.042969 L 74.707031 206.109375 C 74.753906 206.167969 74.839844 206.175781 74.898438 206.128906 L 74.90625 206.121094 L 75.492188 205.519531 C 75.542969 205.46875 75.542969 205.386719 75.496094 205.332031 Z M 74.808594 205.828125 C 74.6875 205.710938 74.546875 205.617188 74.386719 205.554688 C 74.226562 205.484375 74.050781 205.449219 73.867188 205.449219 C 73.683594 205.449219 73.503906 205.484375 73.34375 205.554688 C 73.183594 205.617188 73.042969 205.710938 72.921875 205.828125 L 72.527344 205.425781 C 72.699219 205.257812 72.902344 205.125 73.125 205.03125 C 73.355469 204.9375 73.605469 204.886719 73.867188 204.886719 C 74.128906 204.886719 74.378906 204.9375 74.605469 205.03125 C 74.828125 205.125 75.03125 205.257812 75.203125 205.425781 Z M 74.808594 205.828125 " fill-opacity="1" fill-rule="nonzero"/></g><g fill="#2e17c2" fill-opacity="1"><g transform="translate(105.926102, 223.878691)"><g><path d="M 0.375 -1.8125 L 0.8125 -1.8125 C 1.0625 -1.8125 1.242188 -1.867188 1.359375 -1.984375 C 1.472656 -2.097656 1.53125 -2.273438 1.53125 -2.515625 L 1.53125 -9.15625 C 1.53125 -9.601562 1.289062 -9.828125 0.8125 -9.828125 L 0.375 -9.828125 L 0.375 -11.640625 L 9.46875 -11.640625 L 9.46875 -8.875 L 6.890625 -8.875 L 6.890625 -9.140625 C 6.890625 -9.597656 6.648438 -9.828125 6.171875 -9.828125 L 4.359375 -9.828125 L 4.359375 -6.734375 L 6.796875 -6.734375 L 6.796875 -4.90625 L 4.359375 -4.90625 L 4.359375 -1.8125 L 6.171875 -1.8125 C 6.648438 -1.8125 6.890625 -2.046875 6.890625 -2.515625 L 6.890625 -2.796875 L 9.46875 -2.796875 L 9.46875 0 L 0.375 0 Z M 0.375 -1.8125 "/></g></g></g><g fill="#2e17c2" fill-opacity="1"><g transform="translate(119.840068, 223.878691)"><g><path d="M 0.375 -1.8125 L 0.8125 -1.8125 C 1.0625 -1.8125 1.242188 -1.867188 1.359375 -1.984375 C 1.472656 -2.097656 1.53125 -2.273438 1.53125 -2.515625 L 1.53125 -9.15625 C 1.53125 -9.601562 1.289062 -9.828125 0.8125 -9.828125 L 0.375 -9.828125 L 0.375 -11.640625 L 6 -11.640625 C 7.695312 -11.640625 8.960938 -11.132812 9.796875 -10.125 C 10.628906 -9.125 11.046875 -7.675781 11.046875 -5.78125 C 11.046875 -4.664062 10.859375 -3.671875 10.484375 -2.796875 C 10.109375 -1.929688 9.539062 -1.25 8.78125 -0.75 C 8.03125 -0.25 7.101562 0 6 0 L 0.375 0 Z M 5.5625 -1.8125 C 6.539062 -1.8125 7.234375 -2.140625 7.640625 -2.796875 C 8.054688 -3.453125 8.265625 -4.445312 8.265625 -5.78125 C 8.265625 -7.144531 8.0625 -8.160156 7.65625 -8.828125 C 7.257812 -9.492188 6.5625 -9.828125 5.5625 -9.828125 L 4.3125 -9.828125 L 4.3125 -1.8125 Z M 5.5625 -1.8125 "/></g></g></g><g fill="#2e17c2" fill-opacity="1"><g transform="translate(134.528033, 223.878691)"><g><path d="M 2.953125 -1.8125 L 3.359375 -1.8125 C 3.847656 -1.8125 4.09375 -2.035156 4.09375 -2.484375 L 4.09375 -9.8125 L 2.890625 -9.8125 C 2.640625 -9.8125 2.457031 -9.753906 2.34375 -9.640625 C 2.226562 -9.535156 2.171875 -9.363281 2.171875 -9.125 L 2.171875 -8.390625 L 0.203125 -8.390625 L 0.203125 -11.625 L 10.78125 -11.625 L 10.78125 -8.390625 L 8.8125 -8.390625 L 8.8125 -9.125 C 8.8125 -9.363281 8.753906 -9.535156 8.640625 -9.640625 C 8.535156 -9.753906 8.351562 -9.8125 8.09375 -9.8125 L 6.90625 -9.8125 L 6.90625 -2.484375 C 6.90625 -2.035156 7.15625 -1.8125 7.65625 -1.8125 L 8.0625 -1.8125 L 8.0625 0 L 2.953125 0 Z M 2.953125 -1.8125 "/></g></g></g><g fill="#2e17c2" fill-opacity="1"><g transform="translate(149.593996, 223.878691)"><g><path d="M 0.375 -1.8125 L 0.8125 -1.8125 C 1.0625 -1.8125 1.242188 -1.867188 1.359375 -1.984375 C 1.472656 -2.097656 1.53125 -2.273438 1.53125 -2.515625 L 1.53125 -9.15625 C 1.53125 -9.601562 1.289062 -9.828125 0.8125 -9.828125 L 0.375 -9.828125 L 0.375 -11.640625 L 9.46875 -11.640625 L 9.46875 -8.875 L 6.890625 -8.875 L 6.890625 -9.140625 C 6.890625 -9.597656 6.648438 -9.828125 6.171875 -9.828125 L 4.359375 -9.828125 L 4.359375 -6.734375 L 6.796875 -6.734375 L 6.796875 -4.90625 L 4.359375 -4.90625 L 4.359375 -1.8125 L 6.171875 -1.8125 C 6.648438 -1.8125 6.890625 -2.046875 6.890625 -2.515625 L 6.890625 -2.796875 L 9.46875 -2.796875 L 9.46875 0 L 0.375 0 Z M 0.375 -1.8125 "/></g></g></g><g fill="#2e17c2" fill-opacity="1"><g transform="translate(162.967961, 223.878691)"><g><path d="M 6.59375 0.265625 C 5.25 0.265625 4.109375 0.015625 3.171875 -0.484375 C 2.242188 -0.984375 1.546875 -1.6875 1.078125 -2.59375 C 0.609375 -3.5 0.375 -4.546875 0.375 -5.734375 C 0.375 -6.953125 0.585938 -8.019531 1.015625 -8.9375 C 1.441406 -9.863281 2.09375 -10.59375 2.96875 -11.125 C 3.851562 -11.65625 4.957031 -11.921875 6.28125 -11.921875 C 7.207031 -11.921875 7.992188 -11.832031 8.640625 -11.65625 C 9.296875 -11.476562 9.90625 -11.195312 10.46875 -10.8125 L 10.46875 -8.546875 L 7.65625 -8.546875 L 7.65625 -9.875 C 7.300781 -10.007812 6.863281 -10.078125 6.34375 -10.078125 C 5.300781 -10.078125 4.507812 -9.695312 3.96875 -8.9375 C 3.4375 -8.175781 3.171875 -7.109375 3.171875 -5.734375 C 3.171875 -4.390625 3.46875 -3.359375 4.0625 -2.640625 C 4.664062 -1.921875 5.554688 -1.5625 6.734375 -1.5625 C 7.285156 -1.5625 7.785156 -1.625 8.234375 -1.75 C 8.679688 -1.875 9.132812 -2.082031 9.59375 -2.375 L 10.5625 -0.828125 C 9.945312 -0.410156 9.351562 -0.125 8.78125 0.03125 C 8.207031 0.1875 7.476562 0.265625 6.59375 0.265625 Z M 6.59375 0.265625 "/></g></g></g><g fill="#2e17c2" fill-opacity="1"><g transform="translate(177.979931, 223.878691)"><g><path d="M 0.375 -1.8125 L 0.8125 -1.8125 C 1.0625 -1.8125 1.238281 -1.867188 1.34375 -1.984375 C 1.457031 -2.097656 1.515625 -2.273438 1.515625 -2.515625 L 1.515625 -9.15625 C 1.515625 -9.601562 1.28125 -9.828125 0.8125 -9.828125 L 0.375 -9.828125 L 0.375 -11.640625 L 5.328125 -11.640625 L 5.328125 -9.828125 L 5.046875 -9.828125 C 4.585938 -9.828125 4.359375 -9.601562 4.359375 -9.15625 L 4.359375 -6.75 L 8.03125 -6.75 L 8.03125 -9.125 C 8.03125 -9.363281 7.972656 -9.539062 7.859375 -9.65625 C 7.742188 -9.769531 7.566406 -9.828125 7.328125 -9.828125 L 7.03125 -9.828125 L 7.03125 -11.640625 L 12 -11.640625 L 12 -9.828125 L 11.578125 -9.828125 C 11.097656 -9.828125 10.859375 -9.601562 10.859375 -9.15625 L 10.859375 -2.515625 C 10.859375 -2.273438 10.914062 -2.097656 11.03125 -1.984375 C 11.144531 -1.867188 11.328125 -1.8125 11.578125 -1.8125 L 12 -1.8125 L 12 0 L 7.03125 0 L 7.03125 -1.8125 L 7.328125 -1.8125 C 7.566406 -1.8125 7.742188 -1.867188 7.859375 -1.984375 C 7.972656 -2.097656 8.03125 -2.273438 8.03125 -2.515625 L 8.03125 -4.9375 L 4.359375 -4.9375 L 4.359375 -2.515625 C 4.359375 -2.273438 4.414062 -2.097656 4.53125 -1.984375 C 4.644531 -1.867188 4.820312 -1.8125 5.0625 -1.8125 L 5.328125 -1.8125 L 5.328125 0 L 0.375 0 Z M 0.375 -1.8125 "/></g></g></g><g fill="#2e17c2" fill-opacity="1"><g transform="translate(194.431888, 223.878691)"><g/></g></g><g fill="#2e17c2" fill-opacity="1"><g transform="translate(203.89987, 223.878691)"><g><path d="M 5.0625 0.265625 C 4.101562 0.265625 3.222656 0.140625 2.421875 -0.109375 C 1.628906 -0.367188 0.945312 -0.734375 0.375 -1.203125 L 0.375 -3.296875 L 3.234375 -3.296875 L 3.234375 -1.984375 C 3.734375 -1.703125 4.347656 -1.5625 5.078125 -1.5625 C 6.160156 -1.5625 6.703125 -2.003906 6.703125 -2.890625 C 6.703125 -3.191406 6.609375 -3.445312 6.421875 -3.65625 C 6.242188 -3.875 6.003906 -4.054688 5.703125 -4.203125 C 5.398438 -4.347656 4.921875 -4.566406 4.265625 -4.859375 C 3.378906 -5.234375 2.664062 -5.585938 2.125 -5.921875 C 1.59375 -6.253906 1.179688 -6.640625 0.890625 -7.078125 C 0.609375 -7.515625 0.46875 -8.046875 0.46875 -8.671875 C 0.46875 -9.742188 0.894531 -10.550781 1.75 -11.09375 C 2.613281 -11.644531 3.710938 -11.921875 5.046875 -11.921875 C 5.972656 -11.921875 6.78125 -11.785156 7.46875 -11.515625 C 8.15625 -11.242188 8.757812 -10.878906 9.28125 -10.421875 L 9.28125 -8.53125 L 6.421875 -8.53125 L 6.421875 -9.71875 C 6.015625 -9.957031 5.503906 -10.078125 4.890625 -10.078125 C 3.816406 -10.078125 3.28125 -9.644531 3.28125 -8.78125 C 3.28125 -8.445312 3.390625 -8.160156 3.609375 -7.921875 C 3.828125 -7.679688 4.085938 -7.488281 4.390625 -7.34375 C 4.691406 -7.195312 5.109375 -7.015625 5.640625 -6.796875 C 6.648438 -6.378906 7.40625 -6.03125 7.90625 -5.75 C 8.40625 -5.476562 8.789062 -5.128906 9.0625 -4.703125 C 9.34375 -4.273438 9.484375 -3.722656 9.484375 -3.046875 C 9.484375 -2.410156 9.3125 -1.84375 8.96875 -1.34375 C 8.625 -0.84375 8.117188 -0.445312 7.453125 -0.15625 C 6.796875 0.125 6 0.265625 5.0625 0.265625 Z M 5.0625 0.265625 "/></g></g></g><g fill="#2e17c2" fill-opacity="1"><g transform="translate(217.399835, 223.878691)"><g><path d="M 6 0.265625 C 4.101562 0.265625 2.691406 -0.234375 1.765625 -1.234375 C 0.835938 -2.234375 0.375 -3.75 0.375 -5.78125 C 0.375 -7.832031 0.820312 -9.367188 1.71875 -10.390625 C 2.625 -11.410156 4.050781 -11.921875 6 -11.921875 C 7.9375 -11.921875 9.351562 -11.410156 10.25 -10.390625 C 11.15625 -9.367188 11.609375 -7.832031 11.609375 -5.78125 C 11.609375 -3.75 11.144531 -2.234375 10.21875 -1.234375 C 9.300781 -0.234375 7.894531 0.265625 6 0.265625 Z M 6 -1.5625 C 6.664062 -1.5625 7.207031 -1.695312 7.625 -1.96875 C 8.039062 -2.25 8.34375 -2.695312 8.53125 -3.3125 C 8.71875 -3.925781 8.8125 -4.75 8.8125 -5.78125 C 8.8125 -6.832031 8.71875 -7.671875 8.53125 -8.296875 C 8.34375 -8.921875 8.039062 -9.375 7.625 -9.65625 C 7.207031 -9.9375 6.664062 -10.078125 6 -10.078125 C 5.320312 -10.078125 4.78125 -9.9375 4.375 -9.65625 C 3.96875 -9.375 3.664062 -8.921875 3.46875 -8.296875 C 3.28125 -7.671875 3.1875 -6.832031 3.1875 -5.78125 C 3.1875 -4.75 3.28125 -3.925781 3.46875 -3.3125 C 3.664062 -2.695312 3.96875 -2.25 4.375 -1.96875 C 4.78125 -1.695312 5.320312 -1.5625 6 -1.5625 Z M 6 -1.5625 "/></g></g></g><g fill="#2e17c2" fill-opacity="1"><g transform="translate(233.005787, 223.878691)"><g><path d="M 0.375 -1.8125 L 0.796875 -1.8125 C 1.054688 -1.8125 1.242188 -1.867188 1.359375 -1.984375 C 1.472656 -2.097656 1.53125 -2.273438 1.53125 -2.515625 L 1.53125 -9.15625 C 1.53125 -9.601562 1.289062 -9.828125 0.8125 -9.828125 L 0.375 -9.828125 L 0.375 -11.640625 L 5.484375 -11.640625 L 5.484375 -9.828125 L 5.078125 -9.828125 C 4.597656 -9.828125 4.359375 -9.601562 4.359375 -9.15625 L 4.359375 -1.8125 L 6.171875 -1.8125 C 6.648438 -1.8125 6.890625 -2.046875 6.890625 -2.515625 L 6.890625 -3.21875 L 9.46875 -3.21875 L 9.46875 0 L 0.375 0 Z M 0.375 -1.8125 "/></g></g></g><g fill="#2e17c2" fill-opacity="1"><g transform="translate(245.749756, 223.878691)"><g><path d="M 6.0625 0.265625 C 4.476562 0.265625 3.289062 -0.0546875 2.5 -0.703125 C 1.707031 -1.347656 1.3125 -2.234375 1.3125 -3.359375 L 1.3125 -9.15625 C 1.3125 -9.382812 1.253906 -9.550781 1.140625 -9.65625 C 1.023438 -9.769531 0.84375 -9.828125 0.59375 -9.828125 L 0.21875 -9.828125 L 0.21875 -11.640625 L 5.109375 -11.640625 L 5.109375 -9.828125 L 4.828125 -9.828125 C 4.578125 -9.828125 4.394531 -9.769531 4.28125 -9.65625 C 4.164062 -9.539062 4.109375 -9.367188 4.109375 -9.140625 L 4.109375 -3.265625 C 4.109375 -2.671875 4.269531 -2.238281 4.59375 -1.96875 C 4.925781 -1.695312 5.414062 -1.5625 6.0625 -1.5625 C 6.707031 -1.5625 7.195312 -1.695312 7.53125 -1.96875 C 7.863281 -2.238281 8.03125 -2.671875 8.03125 -3.265625 L 8.03125 -9.140625 C 8.03125 -9.367188 7.972656 -9.539062 7.859375 -9.65625 C 7.753906 -9.769531 7.578125 -9.828125 7.328125 -9.828125 L 7.015625 -9.828125 L 7.015625 -11.640625 L 11.921875 -11.640625 L 11.921875 -9.828125 L 11.53125 -9.828125 C 11.0625 -9.828125 10.828125 -9.601562 10.828125 -9.15625 L 10.828125 -3.359375 C 10.828125 -2.234375 10.425781 -1.347656 9.625 -0.703125 C 8.832031 -0.0546875 7.644531 0.265625 6.0625 0.265625 Z M 6.0625 0.265625 "/></g></g></g><g fill="#2e17c2" fill-opacity="1"><g transform="translate(261.949713, 223.878691)"><g><path d="M 2.953125 -1.8125 L 3.359375 -1.8125 C 3.847656 -1.8125 4.09375 -2.035156 4.09375 -2.484375 L 4.09375 -9.8125 L 2.890625 -9.8125 C 2.640625 -9.8125 2.457031 -9.753906 2.34375 -9.640625 C 2.226562 -9.535156 2.171875 -9.363281 2.171875 -9.125 L 2.171875 -8.390625 L 0.203125 -8.390625 L 0.203125 -11.625 L 10.78125 -11.625 L 10.78125 -8.390625 L 8.8125 -8.390625 L 8.8125 -9.125 C 8.8125 -9.363281 8.753906 -9.535156 8.640625 -9.640625 C 8.535156 -9.753906 8.351562 -9.8125 8.09375 -9.8125 L 6.90625 -9.8125 L 6.90625 -2.484375 C 6.90625 -2.035156 7.15625 -1.8125 7.65625 -1.8125 L 8.0625 -1.8125 L 8.0625 0 L 2.953125 0 Z M 2.953125 -1.8125 "/></g></g></g><g fill="#2e17c2" fill-opacity="1"><g transform="translate(277.015676, 223.878691)"><g><path d="M 0.375 -1.8125 L 0.796875 -1.8125 C 1.054688 -1.8125 1.238281 -1.867188 1.34375 -1.984375 C 1.457031 -2.097656 1.515625 -2.273438 1.515625 -2.515625 L 1.515625 -9.15625 C 1.515625 -9.382812 1.457031 -9.550781 1.34375 -9.65625 C 1.226562 -9.769531 1.046875 -9.828125 0.796875 -9.828125 L 0.375 -9.828125 L 0.375 -11.640625 L 5.46875 -11.640625 L 5.46875 -9.828125 L 5.046875 -9.828125 C 4.578125 -9.828125 4.34375 -9.601562 4.34375 -9.15625 L 4.34375 -2.484375 C 4.34375 -2.035156 4.578125 -1.8125 5.046875 -1.8125 L 5.46875 -1.8125 L 5.46875 0 L 0.375 0 Z M 0.375 -1.8125 "/></g></g></g><g fill="#2e17c2" fill-opacity="1"><g transform="translate(286.303655, 223.878691)"><g><path d="M 6 0.265625 C 4.101562 0.265625 2.691406 -0.234375 1.765625 -1.234375 C 0.835938 -2.234375 0.375 -3.75 0.375 -5.78125 C 0.375 -7.832031 0.820312 -9.367188 1.71875 -10.390625 C 2.625 -11.410156 4.050781 -11.921875 6 -11.921875 C 7.9375 -11.921875 9.351562 -11.410156 10.25 -10.390625 C 11.15625 -9.367188 11.609375 -7.832031 11.609375 -5.78125 C 11.609375 -3.75 11.144531 -2.234375 10.21875 -1.234375 C 9.300781 -0.234375 7.894531 0.265625 6 0.265625 Z M 6 -1.5625 C 6.664062 -1.5625 7.207031 -1.695312 7.625 -1.96875 C 8.039062 -2.25 8.34375 -2.695312 8.53125 -3.3125 C 8.71875 -3.925781 8.8125 -4.75 8.8125 -5.78125 C 8.8125 -6.832031 8.71875 -7.671875 8.53125 -8.296875 C 8.34375 -8.921875 8.039062 -9.375 7.625 -9.65625 C 7.207031 -9.9375 6.664062 -10.078125 6 -10.078125 C 5.320312 -10.078125 4.78125 -9.9375 4.375 -9.65625 C 3.96875 -9.375 3.664062 -8.921875 3.46875 -8.296875 C 3.28125 -7.671875 3.1875 -6.832031 3.1875 -5.78125 C 3.1875 -4.75 3.28125 -3.925781 3.46875 -3.3125 C 3.664062 -2.695312 3.96875 -2.25 4.375 -1.96875 C 4.78125 -1.695312 5.320312 -1.5625 6 -1.5625 Z M 6 -1.5625 "/></g></g></g><g fill="#2e17c2" fill-opacity="1"><g transform="translate(301.729603, 223.878691)"><g><path d="M 0.375 -1.8125 L 0.8125 -1.8125 C 1.28125 -1.8125 1.515625 -2.035156 1.515625 -2.484375 L 1.515625 -9.15625 C 1.515625 -9.601562 1.28125 -9.828125 0.8125 -9.828125 L 0.375 -9.828125 L 0.375 -11.640625 L 3.625 -11.640625 L 8.1875 -4.53125 L 8.1875 -9.15625 C 8.1875 -9.601562 7.945312 -9.828125 7.46875 -9.828125 L 7.03125 -9.828125 L 7.03125 -11.640625 L 12.125 -11.640625 L 12.125 -9.828125 L 11.703125 -9.828125 C 11.234375 -9.828125 11 -9.601562 11 -9.15625 L 11 0 L 8.890625 0 L 4.34375 -7.0625 L 4.34375 -2.484375 C 4.34375 -2.035156 4.578125 -1.8125 5.046875 -1.8125 L 5.46875 -1.8125 L 5.46875 0 L 0.375 0 Z M 0.375 -1.8125 "/></g></g></g><g fill="#2e17c2" fill-opacity="1"><g transform="translate(317.857577, 223.878691)"><g><path d="M 5.0625 0.265625 C 4.101562 0.265625 3.222656 0.140625 2.421875 -0.109375 C 1.628906 -0.367188 0.945312 -0.734375 0.375 -1.203125 L 0.375 -3.296875 L 3.234375 -3.296875 L 3.234375 -1.984375 C 3.734375 -1.703125 4.347656 -1.5625 5.078125 -1.5625 C 6.160156 -1.5625 6.703125 -2.003906 6.703125 -2.890625 C 6.703125 -3.191406 6.609375 -3.445312 6.421875 -3.65625 C 6.242188 -3.875 6.003906 -4.054688 5.703125 -4.203125 C 5.398438 -4.347656 4.921875 -4.566406 4.265625 -4.859375 C 3.378906 -5.234375 2.664062 -5.585938 2.125 -5.921875 C 1.59375 -6.253906 1.179688 -6.640625 0.890625 -7.078125 C 0.609375 -7.515625 0.46875 -8.046875 0.46875 -8.671875 C 0.46875 -9.742188 0.894531 -10.550781 1.75 -11.09375 C 2.613281 -11.644531 3.710938 -11.921875 5.046875 -11.921875 C 5.972656 -11.921875 6.78125 -11.785156 7.46875 -11.515625 C 8.15625 -11.242188 8.757812 -10.878906 9.28125 -10.421875 L 9.28125 -8.53125 L 6.421875 -8.53125 L 6.421875 -9.71875 C 6.015625 -9.957031 5.503906 -10.078125 4.890625 -10.078125 C 3.816406 -10.078125 3.28125 -9.644531 3.28125 -8.78125 C 3.28125 -8.445312 3.390625 -8.160156 3.609375 -7.921875 C 3.828125 -7.679688 4.085938 -7.488281 4.390625 -7.34375 C 4.691406 -7.195312 5.109375 -7.015625 5.640625 -6.796875 C 6.648438 -6.378906 7.40625 -6.03125 7.90625 -5.75 C 8.40625 -5.476562 8.789062 -5.128906 9.0625 -4.703125 C 9.34375 -4.273438 9.484375 -3.722656 9.484375 -3.046875 C 9.484375 -2.410156 9.3125 -1.84375 8.96875 -1.34375 C 8.625 -0.84375 8.117188 -0.445312 7.453125 -0.15625 C 6.796875 0.125 6 0.265625 5.0625 0.265625 Z M 5.0625 0.265625 "/></g></g></g></svg>